<svg id="Layer_1" data-name="Layer 1" xmlns="http://www.w3.org/2000/svg" viewBox="0 0 212.6 48.19"><defs><style>.cls-1{fill:#fff;}</style></defs><title>RadboudLogo</title><path class="cls-1" d="M3.47,27.91c0,.94,0,2.55,0,3.14,0,.43.16.58.75.72.39.09.46.15.46.42v.35c0,.22-.06.29-.23.29l-.71,0c-.34,0-.83,0-1.38,0s-1.1,0-1.44,0l-.71,0c-.19,0-.25-.08-.25-.29v-.35c0-.27.07-.33.48-.42.57-.14.71-.28.73-.72,0-.7,0-2,0-3.14V25c0-1.12,0-2.41,0-3.13,0-.45-.16-.58-.73-.72C.07,21,0,21,0,20.72v-.36c0-.22.05-.29.21-.29l.74,0c.31,0,.72,0,1.28,0,.88,0,.88,0,2.53-.06.35,0,.67,0,1,0a3.41,3.41,0,0,1,2.67.9,3.23,3.23,0,0,1,.88,2.2,3,3,0,0,1-2,3c-.39.11-.42.13-.42.22s0,.05.07.11a3.56,3.56,0,0,1,.28.56,30,30,0,0,0,2.19,3.8c.49.69.71.88,1.24,1,.34.09.35.11.35.41v.31c0,.16-.11.25-.29.25h-.14c-.39,0-1,0-1.44,0L8,32.83H7.75c-.33,0-.33,0-.76-1.09-.16-.4-1.36-3-2-4.31-.3-.65-.37-.7-.79-.7H4.07l-.12,0-.29,0c-.1,0-.19.13-.19.33Zm0-6,0,2.14v.67l0,.49c0,.36.05.43.37.43a3.59,3.59,0,0,0,2.23-.47,2.33,2.33,0,0,0,.8-1.78,2,2,0,0,0-1.41-2A6.48,6.48,0,0,0,4,21.28c-.39,0-.46,0-.46.29Z"/><path class="cls-1" d="M12.78,24.81c.05-.49.18-.63.72-.78a11.88,11.88,0,0,1,2.28-.27c2.26,0,3.3.81,3.3,2.56L19,29.64c0,1.81,0,1.82.21,2a1.32,1.32,0,0,0,.76.21c.35,0,.46.09.46.31v.27c0,.2-.05.24-.37.31L18,33.13a2.53,2.53,0,0,1-.39,0,.29.29,0,0,1-.32-.27,2.38,2.38,0,0,1-.09-.71c0-.33,0-.48-.13-.48a.53.53,0,0,0-.12.07,11.45,11.45,0,0,1-1.08.77,3.54,3.54,0,0,1-1.75.47,2.12,2.12,0,0,1-2-2.26A3.77,3.77,0,0,1,12.57,29c.14-.2.16-.22,1.09-.4L16,28.13c1-.22,1.13-.31,1.13-.85V27c0-1.23-.46-1.7-1.64-1.7A5.34,5.34,0,0,0,13,26a.48.48,0,0,1-.26.11c-.09,0-.12-.07-.12-.22v-.11Zm4.35,4.38c0-.27,0-.32-.14-.32l-.12,0-.19,0a5,5,0,0,0-1.66.51,1.27,1.27,0,0,0-.74,1.16,1,1,0,0,0,1,1,2.28,2.28,0,0,0,1.5-.67,1.57,1.57,0,0,0,.35-1.22Z"/><path class="cls-1" d="M28.77,19.21a1,1,0,0,1,.21,0c.16,0,.25.11.25.33L29.11,25v3.21c0,2.34,0,2.94.14,3.17s.28.41,1,.48c.16,0,.25.08.25.2v.33c0,.18-.05.24-.37.29l-2.28.45-.32,0c-.14,0-.19-.09-.2-.33l-.05-.76c0-.43,0-.45-.16-.45a.39.39,0,0,0-.16.1,11.2,11.2,0,0,1-.94.75,2.59,2.59,0,0,1-1.57.5c-1.95,0-3.34-1.79-3.34-4.33,0-2.92,1.66-4.92,4.07-4.92a4.83,4.83,0,0,1,1.64.34.23.23,0,0,0,.12.07c.07,0,.14-.15.14-.29s0,0,0-.32l0-1.92c0-.94-.05-1-.83-1.14-.34,0-.41-.09-.41-.34v-.34c0-.18.07-.24.35-.27Zm-5.54,8.93c0,2,.85,3.37,2.08,3.37s1.89-1.06,1.89-3.23a5.21,5.21,0,0,0-.39-2.37,1.71,1.71,0,0,0-1.49-.9C24.1,25,23.23,26.31,23.23,28.14Z"/><path class="cls-1" d="M32.48,24.79c0-1.54,0-3.34-.05-3.67s-.23-.57-.73-.63-.55-.1-.55-.33v-.3c0-.16.07-.22.3-.25L34,19.23l.34-.05c.12,0,.21.12.21.3a1.48,1.48,0,0,1,0,.25c0,.45,0,1-.05,2.44,0,1.12,0,2,0,2.48l0,.31v.12c0,.07,0,.11.08.11s.3-.2.71-.63a2.14,2.14,0,0,1,1.87-.79c2,0,3.32,1.61,3.32,4.18,0,3-1.91,5.08-4.72,5.08a6.69,6.69,0,0,1-3-.77.57.57,0,0,1-.32-.59v-.2c0-1.55.05-3.45.07-5.68Zm2.25,1.85A6.64,6.64,0,0,0,34.45,29a6,6,0,0,0,.2,2.2,1.56,1.56,0,0,0,1.32.69c1.37,0,2.39-1.48,2.39-3.48s-.78-3.13-2-3.13A1.93,1.93,0,0,0,34.73,26.65Z"/><path class="cls-1" d="M50.1,25.64a5.14,5.14,0,0,1,.64,2.52,5.36,5.36,0,0,1-1.11,3.34A4.34,4.34,0,0,1,46.09,33c-2.55,0-4.2-1.7-4.2-4.39a5.14,5.14,0,0,1,1.29-3.55,4.08,4.08,0,0,1,3.23-1.31A4,4,0,0,1,50.1,25.64ZM44,28.28c0,1.94,1,3.37,2.43,3.37,1.25,0,2.23-1.33,2.23-3.07,0-2-1-3.48-2.39-3.48S44,26.43,44,28.28Z"/><path class="cls-1" d="M60.53,28.14c0,1.7,0,2.69.07,3,.07.49.25.61.91.7.29,0,.34.09.34.31v.24c0,.22-.05.27-.3.31l-2.4.33-.25,0c-.21,0-.21,0-.34-1.24,0-.27-.07-.39-.17-.39s-.14.05-.37.29C56.82,32.83,56.47,33,55.51,33a3.46,3.46,0,0,1-1.83-.49,2.05,2.05,0,0,1-.81-2c0-.14,0-.46,0-.78V27.28c0-2.11-.05-2.27-.76-2.34-.41,0-.49-.09-.49-.29v-.3c0-.21,0-.25.3-.29l2.6-.25.32,0c.13,0,.18.07.18.21a3.66,3.66,0,0,1,0,.4c-.07.84-.11,2-.11,2.86v1.41c0,1.64,0,1.91.32,2.31a1.27,1.27,0,0,0,1.1.47,2.1,2.1,0,0,0,1.89-1,4.58,4.58,0,0,0,.28-2.27v-.88c0-.68,0-1.64-.07-1.82s-.25-.47-.69-.52-.49-.09-.49-.27v-.32c0-.2.05-.26.3-.27l2.54-.27a1.57,1.57,0,0,1,.29,0c.17,0,.23.05.23.21l0,.47c0,.47,0,.47,0,1.26,0,.33,0,.72,0,1.17Z"/><path class="cls-1" d="M70.48,19.21a1,1,0,0,1,.21,0c.16,0,.25.11.25.33L70.81,25v3.21c0,2.34,0,2.94.14,3.17s.28.41,1,.48c.16,0,.25.08.25.2v.33c0,.18-.05.24-.37.29l-2.27.45-.32,0c-.14,0-.2-.09-.21-.33L69,32.12c0-.43,0-.45-.16-.45a.39.39,0,0,0-.16.1,11,11,0,0,1-.94.75,2.6,2.6,0,0,1-1.57.5c-1.94,0-3.34-1.79-3.34-4.33,0-2.92,1.66-4.92,4.06-4.92a4.86,4.86,0,0,1,1.65.34.23.23,0,0,0,.12.07c.07,0,.14-.15.14-.29s0,0,0-.32l0-1.92c0-.94-.05-1-.83-1.14-.34,0-.41-.09-.41-.34v-.34c0-.18.07-.24.35-.27Zm-5.55,8.93c0,2,.85,3.37,2.08,3.37s1.89-1.06,1.89-3.23a5.26,5.26,0,0,0-.39-2.37A1.71,1.71,0,0,0,67,25C65.79,25,64.93,26.31,64.93,28.14Z"/><path class="cls-1" d="M79,25c0-1.12,0-2.41,0-3.13,0-.45-.16-.58-.74-.72-.41-.09-.48-.14-.48-.41v-.36c0-.22.05-.29.23-.29l.73,0c.33,0,.83,0,1.38,0s1.09,0,1.44,0l.71,0c.18,0,.23.08.23.29v.36c0,.27-.07.32-.46.41-.6.15-.72.27-.74.72s0,2.19,0,3.13V26.9c0,2.07.09,2.89.41,3.46a3,3,0,0,0,2.71,1.37A2.8,2.8,0,0,0,87.2,30c.23-.68.25-1,.25-3.21V25c0-1.07,0-2.44,0-3.13,0-.45-.14-.58-.74-.72-.41-.09-.48-.14-.48-.41v-.36c0-.22.05-.29.23-.29l.73,0c.33,0,.69,0,1,0s.71,0,1.05,0l.72,0c.18,0,.23.08.23.29v.36c0,.27-.07.32-.48.41-.6.15-.71.27-.73.72,0,.61,0,2.14,0,3.13v1.75A14.5,14.5,0,0,1,88.74,30c-.46,2-2.14,3-5,3-2.17,0-3.7-.71-4.36-2-.37-.76-.48-1.61-.48-4.22Z"/><path class="cls-1" d="M90.74,24.47c0-.27,0-.32.26-.36l2.51-.3.3,0c.14,0,.23.13.25.34s.05,1,.05,1.08.09.38.18.38a.33.33,0,0,0,.2-.12l.18-.2L95,24.9a2.6,2.6,0,0,1,2.31-1.14,2.51,2.51,0,0,1,2.53,1.33c.18.43.18.43.18,3.07v.6c0,1.08,0,2.11,0,2.47s.14.49.67.65.55.18.55.42v.29c0,.18-.05.24-.19.24H101c-.46,0-1.29-.05-1.94-.05s-1.49,0-2,.05h-.12c-.14,0-.2-.08-.2-.24V32.3c0-.24,0-.26.55-.42s.63-.27.66-.65,0-1.41,0-2.47v-.6a6.1,6.1,0,0,0-.19-2,1.31,1.31,0,0,0-1.33-.76,2.2,2.2,0,0,0-1.8.92c-.3.41-.37.81-.37,2v.47c0,1.12,0,2.05,0,2.47s.14.49.65.65.55.18.55.42v.29c0,.16-.05.24-.2.24h-.12c-.46,0-1.25-.05-1.93-.05s-1.54,0-2,.05h-.12c-.14,0-.19-.08-.19-.24V32.3c0-.24,0-.26.55-.42s.63-.27.67-.65,0-1.35,0-2.47v-.63a14.73,14.73,0,0,0-.21-2.62c-.09-.31-.27-.42-.81-.45s-.51-.07-.51-.23Z"/><path class="cls-1" d="M104,27.28c0-2.13,0-2.25-.76-2.34-.41,0-.49-.09-.49-.27v-.32c0-.2.05-.25.3-.27l2.53-.27.14,0a.38.38,0,0,1,.14,0c.16,0,.23.13.23.34,0,0,0,0,0,.71,0,.3,0,2.05,0,3v.91c0,1.08,0,2,0,2.47s.14.49.65.65.54.18.54.42v.29c0,.16-.05.24-.19.24h-.12c-.45,0-1.24-.05-1.92-.05s-1.52,0-2,.05h-.12c-.16,0-.19-.05-.19-.24V32.3c0-.24,0-.24.55-.42s.64-.27.67-.65,0-1.3,0-2.47Zm2.21-6.14a1.36,1.36,0,0,1-1.4,1.34,1.34,1.34,0,0,1-1.38-1.32,1.31,1.31,0,0,1,1.45-1.29A1.25,1.25,0,0,1,106.18,21.14Z"/><path class="cls-1" d="M116.88,24.33c0,.25,0,.25-.34.34s-.34.27-.64,1c-.19.5-.19.5-1.71,4.26-.56,1.4-.69,1.73-.81,2.07a2.81,2.81,0,0,1-.23.55c-.05.09-.13.13-.37.16s-.21,0-.83.13a.84.84,0,0,1-.2,0c-.18,0-.2,0-.39-.6s-.39-1-1.2-3.27-1.2-3.25-1.5-4c-.12-.3-.16-.32-.57-.47a.27.27,0,0,1-.16-.28V24c0-.18.07-.23.3-.23l.87,0c.19,0,.51,0,.93,0,.83,0,1.35,0,1.88-.05h.21c.18,0,.25.05.25.23v.33c0,.23,0,.23-.49.36s-.71.26-.71.51a1,1,0,0,0,.07.36c.09.28.18.54.25.81l.44,1.42c.55,1.81.92,2.94,1,2.94s0-.09.07-.2l.07-.25.16-.49c.09-.29.21-.63.32-1l.51-1.41a11.77,11.77,0,0,0,.69-2.25c0-.21-.28-.41-.72-.51-.21-.05-.26-.11-.26-.27V24c0-.16.07-.23.21-.23a.81.81,0,0,1,.2,0c.21,0,.94,0,1.29,0s.73,0,1.1-.05h.16c.14,0,.2.05.2.23Z"/><path class="cls-1" d="M120.13,27.73c-.66,0-.73.05-.73.66a2.77,2.77,0,0,0,2.63,3,5.06,5.06,0,0,0,2.73-.92s.05-.05.07-.05.11.07.11.16c0,.27-.16,1.46-.19,1.59s-.25.21-.73.4a6.47,6.47,0,0,1-2.22.41,4.16,4.16,0,0,1-4.37-4.37c0-2.8,1.89-4.89,4.46-4.89,2.09,0,3.22,1.19,3.22,3.34,0,.48-.19.63-.86.63Zm.3-.89.81-.07c.32,0,1.19-.09,1.5-.14s.37-.12.37-.36a1.79,1.79,0,0,0-.34-1,1.21,1.21,0,0,0-1-.45,1.85,1.85,0,0,0-1.45.68,2.21,2.21,0,0,0-.49,1.17c0,.15.07.2.25.2Z"/><path class="cls-1" d="M126.57,24.56c0-.27.05-.32.32-.36l2.6-.39.14,0,.14,0c.12,0,.21.13.21.3l0,.8c0,.77,0,.9.16.9a.81.81,0,0,0,.34-.29l.69-.8a1.93,1.93,0,0,1,1.18-.81,3.28,3.28,0,0,1,.84-.11c.45,0,.65.13.63.39v0l-.07,1.26c0,.33-.09.45-.25.45l-.16,0a3.59,3.59,0,0,0-1-.11,2.11,2.11,0,0,0-1.5.51c-.4.41-.47.78-.47,2.56v.81l0,1.15c0,.59.05.74.3.87a4.35,4.35,0,0,0,.92.25c.54.13.56.13.56.37v.25c0,.18-.09.29-.23.29h-.09c-.51,0-1.92-.05-2.63-.05s-1.4,0-1.84.05h-.12c-.14,0-.2-.08-.2-.24V32.3c0-.24,0-.24.55-.42s.64-.27.67-.65,0-1.28,0-2.47v-.6a8.4,8.4,0,0,0-.3-2.42c-.16-.45-.42-.61-1-.63-.39,0-.44-.05-.44-.25Z"/><path class="cls-1" d="M141,25.62c0,.29-.05.33-.25.33h-.29c-.18,0-.18,0-.35-.47a1.51,1.51,0,0,0-1.52-.74c-.85,0-1.42.47-1.42,1.17,0,.49.25.81.94,1.21a16.05,16.05,0,0,0,1.59.77,2.73,2.73,0,0,1,1.82,2.4c0,1.64-1.47,2.73-3.69,2.73a5.28,5.28,0,0,1-2.32-.49c-.25-.11-.3-.22-.28-.49l.11-1.23c0-.22.11-.31.3-.31h.3c.19,0,.21,0,.32.47A1.79,1.79,0,0,0,138,32.06c.9,0,1.54-.49,1.54-1.19,0-.54-.29-.83-1.26-1.28-2.3-1.06-2.86-1.68-2.86-3,0-1.76,1.31-2.81,3.5-2.81a5.24,5.24,0,0,1,1.82.3c.28.11.35.2.35.42v.05Z"/><path class="cls-1" d="M144.35,27.28c0-2.13,0-2.25-.76-2.34-.41,0-.5-.09-.5-.27v-.32c0-.2.05-.25.3-.27l2.53-.27.14,0a.4.4,0,0,1,.14,0c.16,0,.23.13.23.34,0,0,0,0,0,.71,0,.3,0,2.05,0,3v.91c0,1.08,0,2,0,2.47s.14.49.65.65.54.18.54.42v.29c0,.16-.05.24-.19.24h-.13c-.46,0-1.25-.05-1.93-.05s-1.52,0-2,.05h-.13c-.16,0-.19-.05-.19-.24V32.3c0-.24,0-.24.55-.42s.64-.27.67-.65,0-1.3,0-2.47Zm2.21-6.14a1.36,1.36,0,0,1-1.4,1.34,1.34,1.34,0,0,1-1.38-1.32,1.31,1.31,0,0,1,1.45-1.29A1.25,1.25,0,0,1,146.56,21.14Z"/><path class="cls-1" d="M150.18,26.36c0-1,0-1.06-.44-1.06l-.32,0H149l-.26,0c-.11,0-.18-.05-.18-.11a.64.64,0,0,1,.07-.24l.21-.59c.14-.4.18-.43.35-.43l.43,0a.93.93,0,0,0,.21,0c.32,0,.44-.11.44-.38,0-.09,0-.66-.05-1.18,0-.29,0-.56,0-.76a.6.6,0,0,1,.49-.68l1.11-.4c.35-.13.35-.13.4-.13s.18.13.18.27a3.43,3.43,0,0,1-.05.52c-.05.45-.18,2-.18,2.3s.09.38.6.38h1.45a6,6,0,0,0,.92-.05h.1a.13.13,0,0,1,.14.15,4.34,4.34,0,0,1-.21.83c-.11.38-.2.45-.48.45l-.53,0-.67,0-.67,0c-.57,0-.57,0-.57.78V28.8a5.43,5.43,0,0,0,.21,2.25,1.06,1.06,0,0,0,1.06.52,5.42,5.42,0,0,0,1.43-.24l.26-.05c.09,0,.13.05.13.15a6,6,0,0,1-.19,1.18,5.37,5.37,0,0,1-2.21.41c-2,0-2.77-.6-2.77-2.15l0-1.06c0-.43,0-.78,0-1Z"/><path class="cls-1" d="M165.51,24.29c0,.18,0,.21-.19.29-.37.18-.41.24-.82,1.3-.16.47-.34.9-.51,1.33l-1,2.4c-.37.94-.72,1.88-1.09,2.84-.87,2.31-1,2.53-1.43,3a2.6,2.6,0,0,1-1.86.8c-1.41,0-1.59-.11-1.59-1a2.64,2.64,0,0,1,0-.42l0-.33c0-.2.05-.27.17-.27a.39.39,0,0,1,.14,0,4.62,4.62,0,0,0,1.38.2A1.81,1.81,0,0,0,160.65,33a1.18,1.18,0,0,1,.12-.31.06.06,0,0,1,0,0s-.05-.07-.11-.11c-.21-.11-.23-.15-.7-1.33-.59-1.44-1.2-2.87-1.8-4.29-.21-.5-.48-1.14-.74-1.75-.2-.43-.27-.49-.67-.61-.12,0-.16-.09-.16-.29V24a.19.19,0,0,1,.21-.21h.12c.16,0,1.75.05,2.08.05s1.31,0,1.61-.05h.16c.16,0,.25.09.25.21v.31c0,.25,0,.25-.65.41-.37.09-.56.29-.56.52a1.08,1.08,0,0,0,.11.41c.1.29.21.58.3.89l.57,1.48.28.72c.12.32.34.87.48,1.25s.14.38.18.38a48.89,48.89,0,0,0,1.63-5.21c0-.25-.18-.42-.51-.49s-.46-.11-.46-.36V24c0-.16.05-.21.19-.21h.16c.37,0,.83.05,1.31.05s.75,0,1,0a.65.65,0,0,1,.17,0c.16,0,.23.07.23.21Z"/><path class="cls-1" d="M178.51,27.74l-.1.24-2.94-.08-.2-.25h-.19v1.81a1.78,1.78,0,1,0,3.56-.16l.11-1.56Zm-.36,1.8a1.41,1.41,0,0,1-1.14,1,1.51,1.51,0,0,1-1.52-1.2,2.64,2.64,0,0,1,0-.66l2.7.09A3.15,3.15,0,0,1,178.15,29.54Z"/><polygon class="cls-1" points="176.31 36.28 176.88 37.43 177.01 37.35 176.94 37.05 179.64 35.86 179.78 36.03 180.01 35.92 179.51 34.89 179.35 34.96 179.35 35.27 176.7 36.43 176.47 36.26 176.31 36.28"/><path class="cls-1" d="M177.18,35.07v.13l-.77.16a1.93,1.93,0,0,1,.54-3.43c1.38-.43,2,.46,2.25,1.51a6.74,6.74,0,0,1,.14.87l-.73.2-.1-.15a1,1,0,0,0-1-1.69l.39,1.67.3.12.05.16-.78.2,0-.16.11-.17-.42-1.68a1.12,1.12,0,0,0-1,1.34A1.36,1.36,0,0,0,177.18,35.07Z"/><path class="cls-1" d="M176.61,27a.42.42,0,0,1,.74-.39.49.49,0,0,1-.19.6A.42.42,0,0,1,176.61,27Z"/><path class="cls-1" d="M178.92,37.67a.44.44,0,0,1,.14-.54.52.52,0,0,1,.61.21.41.41,0,0,1-.21.54A.41.41,0,0,1,178.92,37.67Z"/><path class="cls-1" d="M199.34,45.56a.42.42,0,0,1,.76-.34.42.42,0,1,1-.76.34Z"/><polygon class="cls-1" points="177.45 20.28 176.86 21.43 177 21.48 177.24 21.27 179.85 22.61 179.79 22.82 180.03 22.92 180.5 21.91 180.33 21.83 180.09 22 177.6 20.67 177.57 20.4 177.45 20.28"/><polygon class="cls-1" points="179.07 25.32 178.9 25.27 178.75 25.39 176.8 24.98 179.59 23.91 179.84 23.27 179.64 23.22 179.45 23.3 176.83 22.26 176.81 22.01 176.62 21.95 176.29 22.86 176.53 22.94 176.75 22.83 178.62 23.55 175.64 24.7 175.51 25.14 178.62 25.83 178.75 25.98 178.87 26.03 179.07 25.32"/><path class="cls-1" d="M185,42.73h0a1.56,1.56,0,0,0-.39-1.24l0-.05,0,0h0l0,0,0,0a1.57,1.57,0,0,0-1.26-.35,1.84,1.84,0,0,0-1.34.79,1.64,1.64,0,0,0,.11,2.28h0a1.76,1.76,0,0,0,2.32,0A1.92,1.92,0,0,0,185,42.73Zm-1.14.67a1.72,1.72,0,0,1-1,.54.7.7,0,0,1-.52-.21l0-.05a.53.53,0,0,1-.23-.44,2,2,0,0,1,.56-1.14c.2-.2.94-1,1.52-.45l.09.08C184.81,42.27,184.06,43.22,183.89,43.4Z"/><polygon class="cls-1" points="189.27 47.64 190.48 47.91 190.5 47.77 190.23 47.57 190.8 44.71 191.07 44.7 191.09 44.45 189.98 44.26 189.93 44.44 190.21 44.65 189.65 47.4 189.35 47.48 189.27 47.64"/><path class="cls-1" d="M198.5,46.33h.13l.25.75a1.77,1.77,0,0,1-1.15.73,1.65,1.65,0,0,1-2.24-1.29c-.44-1.39.45-1.94,1.5-2.25a5.39,5.39,0,0,1,.88-.14l.19.75-.15.1a1,1,0,0,0-1-.32,1.08,1.08,0,0,0-.72,1.36l1.68-.38.14-.3.17,0,.19.78-.17,0L198,46l-1.66.39a1.1,1.1,0,0,0,1.32,1A1.07,1.07,0,0,0,198.5,46.33Z"/><polygon class="cls-1" points="182.34 39.41 182.21 39.52 182.23 39.72 180.8 41.17 181.43 38.27 181.03 37.71 180.89 37.85 180.85 38.06 178.51 39.68 178.29 39.56 178.15 39.69 178.75 40.47 178.95 40.31 178.98 40.06 180.59 38.9 179.93 41.99 180.24 42.35 182.52 40.08 182.72 40.04 182.82 39.97 182.34 39.41"/><polygon class="cls-1" points="193.91 44.73 193.9 44.91 194.07 45.02 194.27 47.03 192.39 44.62 191.74 44.55 191.75 44.75 191.88 44.92 191.65 47.77 191.41 47.88 191.41 48.07 192.36 48.09 192.37 47.82 192.21 47.64 192.34 45.67 194.31 48.19 194.78 48.19 194.52 45.04 194.63 44.86 194.64 44.73 193.91 44.73"/><polygon class="cls-1" points="184.01 45.43 184.1 45.24 184.37 45.26 186.25 43.11 186.16 42.88 186.31 42.71 186.89 42.96 186.8 45.09 188 43.69 187.94 43.58 188.04 43.5 188.89 43.85 188.88 44.06 188.73 44.13 188.35 47.04 188.56 47.28 188.5 47.45 187.51 47.01 187.57 46.8 187.75 46.76 188.02 44.47 186.26 46.57 185.9 46.45 186.15 43.81 184.72 45.53 184.84 45.77 184.79 45.9 184.01 45.43"/><path class="cls-1" d="M206.37,41.67l.12-.06.51.6a1.71,1.71,0,0,1-.63,1.22,1.68,1.68,0,0,1-2.65,0c-1-1-.47-2,.32-2.72a5.25,5.25,0,0,1,.7-.55l.53.56-.08.16a1,1,0,0,0-1,1.72l1.31-1.12,0-.33.11-.12.55.54-.12.12h-.21l-1.32,1.23a1.07,1.07,0,0,0,1.64.2A1.37,1.37,0,0,0,206.37,41.67Z"/><path class="cls-1" d="M210.5,24v-.13l.78-.17a1.73,1.73,0,0,1,.75,1.14,1.7,1.7,0,0,1-1.31,2.29c-1.35.42-2-.47-2.24-1.52a6.38,6.38,0,0,1-.15-.87l.74-.2.1.15a1,1,0,0,0-.29,1,1,1,0,0,0,1.33.69l-.37-1.68-.31-.13,0-.17.8-.21,0,.14-.11.22.42,1.69a1.12,1.12,0,0,0,1-1.34A1.35,1.35,0,0,0,210.5,24Z"/><path class="cls-1" d="M210.92,21.82l-.87.44c0-.67.17-1.42.1-1.8a1.59,1.59,0,0,0-.73-1.05l-.13.1a1.46,1.46,0,0,1,.26.55,2.24,2.24,0,0,1,0,1.23,1.15,1.15,0,0,0-1.4-.49,1.19,1.19,0,0,0-.83,1.65l.73,1.7.25-.11.06-.16L211,22.52l.19.12.14,0ZM208,23.32c-.33-.69-.52-1.71.38-1.94.75-.2,1.2.52,1.3,1.09Z"/><path class="cls-1" d="M209,30.81V28.09l-.22-.74.93.59a.59.59,0,0,0-.23.1,2.81,2.81,0,0,0-.11,1.11l3,0,.06-.13h.15v1.07h-.09l-.13-.25-3,0c0,.32,0,.8,0,.87a.45.45,0,0,0,.17.09l-.78.52Z"/><polygon class="cls-1" points="212.15 33.38 212.38 32.16 212.24 32.15 212.03 32.4 209.15 31.89 209.13 31.68 208.88 31.65 208.73 32.77 208.91 32.8 209.09 32.57 211.89 33.06 211.99 33.31 212.15 33.38"/><path class="cls-1" d="M210.88,34l.13-.13.68.31a1.92,1.92,0,0,1-.12,1.45,1.77,1.77,0,0,1-2.53,1c-1.3-.59-1.16-1.66-.72-2.67a7,7,0,0,1,.43-.77l.75.29-.06.2a.92.92,0,0,0-.84.55c-.28.56.16,1.06.67,1.46a1.47,1.47,0,0,0,1.93-.36A1.27,1.27,0,0,0,210.88,34Z"/><polygon class="cls-1" points="209.89 39.17 210.51 38.08 210.37 38.07 210.11 38.23 207.46 36.77 207.51 36.56 207.28 36.46 206.86 37.47 207.03 37.55 207.28 37.4 209.76 38.79 209.78 39.05 209.89 39.17"/><path class="cls-1" d="M207.83,41.93l1.73-2-.37-1-.25.25a2.4,2.4,0,0,1,.05.64,2.46,2.46,0,0,1-.73,1.05L206,39.08l.1-.24-.2-.14-.77,1,.21.14.25-.11,2.18,1.82,0,.26Z"/><path class="cls-1" d="M201.83,46.49l.93-.51-.09-.11-.25,0-.67-1.35a3.43,3.43,0,0,1,.91-.48,2.46,2.46,0,0,1,.46,0l-.34-.68a3.7,3.7,0,0,1-.28.32,3.38,3.38,0,0,1-.94.49l-.47-1a5.07,5.07,0,0,1,1.09-.6c.14,0,.4-.09.4-.09a1.39,1.39,0,0,1,0-.29,2.53,2.53,0,0,1,.23-.45l-2.74,1.6.06.2h.27l1.32,2.62-.06.23Z"/><path class="cls-1" d="M205,12.22l-.15-.44h-3.22v-3a2,2,0,0,0-1.51-2A8.11,8.11,0,0,0,197,4.53V1.82h-1.85V0h-2.74V1.82h-1.81V4.53a7.88,7.88,0,0,0-3.09,2.27,2,2,0,0,0-1.49,2v3h-3.21l-.14.44a12.41,12.41,0,0,0-.56,3.89c0,4.37,1.61,9.47,3.19,13.45,2.4,6,5.56,11.47,7.21,13.28.39.39.71.74,1.23.76h.07a1.86,1.86,0,0,0,1.24-.76c1.69-1.81,4.88-7.26,7.28-13.28,1.59-4,3.2-9.09,3.2-13.45A12.14,12.14,0,0,0,205,12.22Zm-4.65-3.4v3h-2.9V8.69c0-.39.1-.47.17-.51a2.65,2.65,0,0,1,1.46-.25C200.24,7.92,200.37,8.43,200.37,8.82ZM198.26,6.7a3,3,0,0,0-1.23.35,3.17,3.17,0,0,0-1.85-1.33V5.3A6.86,6.86,0,0,1,198.26,6.7Zm-2.06,2v3.1h-4.72V8.69c0-.89.59-1.92,2.33-1.92h0C195.59,6.77,196.2,7.8,196.2,8.69Zm-4.57-5.87h1.82V1h.76V2.81h1.85v.81H194.2V5.47h-.76V3.62h-1.82Zm.82,2.48v.43a3.28,3.28,0,0,0-1.81,1.33,2.94,2.94,0,0,0-1.22-.35A7,7,0,0,1,192.45,5.3Zm-5.11,3.52c0-.39.13-.9,1.25-.9a2.58,2.58,0,0,1,1.44.25c.08,0,.18.12.18.51,0,0,0,2,0,3.1h-2.87Zm6.48,4.24h10.13c.05.19.1.39.13.6h-4.77c-2,0-2.88.49-2.88,1.67a1.42,1.42,0,0,0,.53,1l-1.34.5a1.14,1.14,0,0,1-.36-.66,1.73,1.73,0,0,0,.3-.94c0-.72-.5-1.46-1.77-1.5h0a2,2,0,0,0-1.25.43l-.05.06a1,1,0,0,0-.86,1v.5a1.91,1.91,0,0,1,.37.07.63.63,0,0,1,.29.24.64.64,0,0,1-.27.81c-.14-.06-1.11-.41-1.34-.5a1.42,1.42,0,0,0,.55-1c0-1.18-.87-1.67-2.9-1.67h-4.66c0-.21.08-.41.14-.6Zm-9.3,10c-.19-.69-.34-1.33-.48-2L191.32,20l-6.81,3.13Zm7.45-2-1.35,2h-2.95Zm-7.08,3.31H191v3h-5.17C185.47,26.32,185.16,25.33,184.88,24.37Zm6.14,14c-.93-1.56-1.94-3.47-2.91-5.54H191Zm5.64,0V32.83h2.9C198.59,34.9,197.59,36.81,196.66,38.37Zm4.53-9.29c-.34.84-.69,1.65-1.06,2.47h-4.74v8.82a15.33,15.33,0,0,1-1.23,1.6,3.49,3.49,0,0,1-.35.33c-.09-.08-.23-.23-.34-.33a15.12,15.12,0,0,1-1.23-1.6V31.55h-4.68c-.37-.82-.72-1.63-1-2.47l-.2-.48h5.92V24.37h3.14V28.6h6Zm-9.08-6,1.07-1.61V23.1Zm2.35,0V21.49l1.07,1.61Zm7.4,4.23h-5.2v-3h6.19C202.56,25.33,202.24,26.32,201.86,27.33Zm-6.16-6.27,4.34,2h-3Zm7.5,2h0L196.36,20l7.33,1.14C203.56,21.77,203.39,22.41,203.21,23.1Zm.73-3.23-8.11-1.28a2.16,2.16,0,0,1,.16.81,2.1,2.1,0,0,1-2.11,2.1h-.14a2.06,2.06,0,0,1-2-2.1,2.24,2.24,0,0,1,.16-.81l-8.07,1.28a22.92,22.92,0,0,1-.35-3.79c0-.41,0-.79,0-1.18h4.83c1.33,0,1.44.14,1.5.2a.28.28,0,0,1,0,.39,1.15,1.15,0,0,0-.73,1v0c0,.52.46.72,1.56,1.15l1.43.56.23-.13a2,2,0,0,0,1.21-1.7,1.67,1.67,0,0,0,0-.3,1.29,1.29,0,0,0-.14-.33h0a1,1,0,0,0-.39-.42.77.77,0,0,1,.75-.51h.13a.55.55,0,0,1,.54.59c0,.4-.25.48-.25,1a2,2,0,0,0,1.2,1.7l.25.13,1.44-.56c1.11-.44,1.56-.63,1.56-1.15v0a1.15,1.15,0,0,0-.72-1,.25.25,0,0,1,0-.39c.06-.06.18-.2,1.48-.2h4.94c0,.39.05.77.05,1.18A22.72,22.72,0,0,1,203.94,19.87Z"/></svg>